<svg  xmlns="http://www.w3.org/2000/svg" width="280" height="80" viewBox="0 0 280 80">
  <g fill="none" fill-rule="evenodd">
    <path fill="#FFCC00" d="M40 0C17.909 0 0 17.909 0 40s17.909 40 40 40 40-17.909 40-40S62.091 0 40 0z"/>
    <path fill="#121212" d="M59.5 40.5c0 2.485-2.015 4.5-4.5 4.5s-4.5-2.015-4.5-4.5 2.015-4.5 4.5-4.5 4.5 2.015 4.5 4.5zM29.5 40.5c0 2.485-2.015 4.5-4.5 4.5s-4.5-2.015-4.5-4.5 2.015-4.5 4.5-4.5 4.5 2.015 4.5 4.5z"/>
    <path fill="#121212" d="M58 27h-6.5l-5-10h-13l-5 10H22c-3.866 0-7 3.134-7 7v13c0 1.657 1.343 3 3 3h3c1.657 0 3-1.343 3-3v-1h35v1c0 1.657 1.343 3 3 3h3c1.657 0 3-1.343 3-3V34c0-3.866-3.134-7-7-7z"/>
    <path fill="#FFCC00" d="M24 37c0-1.657-1.343-3-3-3s-3 1.343-3 3 1.343 3 3 3 3-1.343 3-3zm38 0c0-1.657-1.343-3-3-3s-3 1.343-3 3 1.343 3 3 3 3-1.343 3-3z"/>
    <path fill="#FFFFFF" d="M56 31H24c-1.105 0-2 .895-2 2v8c0 1.105.895 2 2 2h32c1.105 0 2-.895 2-2v-8c0-1.105-.895-2-2-2z"/>
    <path fill="#121212" d="M95 30h8v20h-8V30zm0-8h8v5h-8v-5zm10 8h8l.5 3c1.5-2 3.833-3 7-3 4.167 0 6.667 1.667 7.5 5 1.5-3.333 4.333-5 8.5-5 6.667 0 10 3.333 10 10v10h-8V42c0-2.667-1-4-3-4s-3 1.333-3 4v8h-8V42c0-2.667-1-4-3-4s-3 1.333-3 4v8h-8V30zm44 0h8l.5 3c1.667-2.333 4.167-3.5 7.5-3.5 7.5 0 11.417 4.583 11.75 13.75h-18c.667 2.167 2.583 3.25 5.75 3.25 2.167 0 4.167-.5 6-1.5l3 5.5c-2.667 1.667-6.167 2.5-10.5 2.5-4.833 0-8.583-1.417-11.25-4.25-2.667-2.833-4-6.583-4-11.25 0-3.167.667-5.917 2-8.25 1.333-2.333 3.083-4.083 5.25-5.25 2.167-1.167 4.583-1.75 7.25-1.75 3.333 0 6.167.833 8.5 2.5l-3.5 5.5c-1.667-1-3.5-1.5-5.5-1.5-3.333 0-5.333 1.667-6 5h13.5c.333-1.667.5-3.083.5-4.25 0-1.167-.083-2.083-.25-2.75H149V30zm30 0h8.5l.5 2.5c2-2 4.667-3 8-3v8h-2c-4 0-6 2-6 6v6.5h-9V30zm21.5 10c0-3.167.667-5.917 2-8.25 1.333-2.333 3.083-4.083 5.25-5.25 2.167-1.167 4.583-1.75 7.25-1.75 3.5 0 6.417.833 8.75 2.5 2.333 1.667 4 3.833 5 6.5l-7 3c-1-2.333-3-3.5-6-3.5-2 0-3.583.667-4.75 2-1.167 1.333-1.75 3.083-1.75 5.25 0 2.333.583 4.167 1.75 5.5 1.167 1.333 2.75 2 4.75 2 3 0 5-1.167 6-3.5l7 3c-1 2.667-2.667 4.833-5 6.5-2.333 1.667-5.25 2.5-8.75 2.5-2.667 0-5.083-.583-7.25-1.75-2.167-1.167-3.917-2.917-5.25-5.25-1.333-2.333-2-5.083-2-8.25zm74.5 11h-9v-3c-1.667 2.333-4.167 3.5-7.5 3.5-5.667 0-8.5-3-8.5-9V30h9v11c0 2.667 1 4 3 4 2.333 0 3.5-1.5 3.5-4.5V30h9.5v21z"/>
  </g>
</svg>
 